<?xml version="1.0" standalone="no"?>
<!DOCTYPE svg PUBLIC "-//W3C//DTD SVG 20010904//EN"
 "http://www.w3.org/TR/2001/REC-SVG-20010904/DTD/svg10.dtd">
<svg version="1.0" xmlns="http://www.w3.org/2000/svg"
 width="220.000000pt" height="220.000000pt" viewBox="0 0 220.000000 220.000000"
 preserveAspectRatio="xMidYMid meet">
<metadata>
Created by potrace 1.14, written by Peter Selinger 2001-2017
</metadata>
<g transform="translate(0.000000,220.000000) scale(0.100000,-0.100000)"
fill="#000000" stroke="none">
<path d="M302 1862 c-16 -16 -38 -111 -58 -247 -2 -11 -5 -31 -8 -45 -3 -14
-17 -95 -31 -180 -14 -85 -37 -218 -52 -295 -14 -77 -27 -151 -30 -165 -7 -44
-81 -402 -100 -490 -30 -137 -43 -125 139 -125 145 0 159 2 178 20 19 19 35
82 54 210 4 22 13 76 21 120 8 44 17 94 20 110 24 146 40 183 86 195 13 4 60
6 104 6 96 -1 91 14 55 -191 -6 -33 -15 -85 -20 -115 -6 -30 -12 -66 -15 -80
-6 -29 -34 -189 -42 -240 l-5 -35 148 -2 c176 -2 187 2 200 74 5 26 9 55 9 63
1 8 4 29 8 45 4 17 9 46 12 65 3 19 8 46 10 60 11 55 15 76 21 105 3 17 11 58
19 93 28 119 12 199 -46 240 -32 22 -43 51 -28 78 7 13 18 24 25 24 21 0 105
89 124 133 24 54 64 274 65 353 0 54 -4 67 -38 117 -20 31 -56 69 -79 84 l-42
28 -343 2 c-319 2 -345 1 -361 -15z m503 -269 c17 -16 17 -17 -1 -133 -18
-112 -36 -186 -48 -199 -15 -14 -38 -15 -160 -7 -73 5 -74 7 -41 198 17 94 35
142 57 151 7 3 50 6 95 6 63 1 85 -3 98 -16z"/>
<path d="M1348 1869 c-9 -5 -21 -24 -27 -42 -9 -27 -36 -176 -46 -254 -2 -12
-6 -36 -10 -53 -4 -17 -8 -41 -10 -53 -3 -22 -21 -128 -30 -177 -6 -34 -43
-247 -50 -290 -5 -31 -31 -172 -41 -223 -2 -10 -12 -71 -23 -135 -12 -64 -27
-150 -35 -191 -18 -94 -9 -128 39 -137 19 -3 170 -4 337 -2 281 4 307 6 358
26 110 43 182 148 219 317 26 120 33 176 34 265 0 80 -12 113 -60 155 -36 32
-29 60 22 95 80 55 126 140 140 260 3 30 11 82 17 115 6 33 10 80 9 105 -2 85
-76 194 -146 217 -39 13 -675 15 -697 2z m478 -290 c14 -15 9 -54 -30 -234
-19 -87 -28 -92 -139 -89 -118 4 -121 10 -87 167 38 170 47 181 163 174 51 -2
83 -9 93 -18z m-90 -622 c7 -7 -2 -63 -38 -216 -28 -124 -44 -143 -123 -144
-84 -1 -133 10 -137 31 -6 27 39 277 53 300 7 11 22 25 34 31 21 11 200 10
211 -2z"/>
</g>
</svg>
