<svg width="49" height="48" viewBox="0 0 49 48" fill="none" xmlns="http://www.w3.org/2000/svg">
<path fill-rule="evenodd" clip-rule="evenodd" d="M24.3334 46.5C36.7598 46.5 46.8334 36.4264 46.8334 24C46.8334 11.5736 36.7598 1.5 24.3334 1.5C11.907 1.5 1.83337 11.5736 1.83337 24C1.83337 36.4264 11.907 46.5 24.3334 46.5ZM24.3334 48C37.5882 48 48.3334 37.2548 48.3334 24C48.3334 10.7452 37.5882 0 24.3334 0C11.0785 0 0.333374 10.7452 0.333374 24C0.333374 37.2548 11.0785 48 24.3334 48Z" fill="#1B1B1B"/>
<path fill-rule="evenodd" clip-rule="evenodd" d="M23.5334 16C24.8589 16 25.9334 17.0745 25.9334 18.4L25.9334 19.3365C26.1836 19.2481 26.4529 19.2 26.7334 19.2H29.9334C31.2589 19.2 32.3334 20.2745 32.3334 21.6V29.6C32.3334 30.9255 31.2589 32 29.9334 32H18.7334C17.4079 32 16.3334 30.9255 16.3334 29.6V18.4C16.3334 17.0745 17.4079 16 18.7334 16H23.5334ZM23.5334 17.6H18.7334C18.2915 17.6 17.9334 17.9582 17.9334 18.4V29.6C17.9334 30.0418 18.2915 30.4 18.7334 30.4H24.3334V18.4C24.3334 17.9582 23.9752 17.6 23.5334 17.6ZM29.9334 20.8H26.7334C26.2915 20.8 25.9334 21.1582 25.9334 21.6V30.4H29.9334C30.3752 30.4 30.7334 30.0418 30.7334 29.6V21.6C30.7334 21.1582 30.3752 20.8 29.9334 20.8ZM21.9334 25.6C22.3752 25.6 22.7334 25.9582 22.7334 26.4C22.7334 26.8418 22.3752 27.2 21.9334 27.2H20.3334C19.8915 27.2 19.5334 26.8418 19.5334 26.4C19.5334 25.9582 19.8915 25.6 20.3334 25.6H21.9334ZM29.1334 25.6C29.5752 25.6 29.9334 25.9582 29.9334 26.4C29.9334 26.8418 29.5752 27.2 29.1334 27.2H27.5334C27.0915 27.2 26.7334 26.8418 26.7334 26.4C26.7334 25.9582 27.0915 25.6 27.5334 25.6H29.1334ZM21.9334 22.4C22.3752 22.4 22.7334 22.7582 22.7334 23.2C22.7334 23.6418 22.3752 24 21.9334 24H20.3334C19.8915 24 19.5334 23.6418 19.5334 23.2C19.5334 22.7582 19.8915 22.4 20.3334 22.4H21.9334ZM29.1334 22.4C29.5752 22.4 29.9334 22.7582 29.9334 23.2C29.9334 23.6418 29.5752 24 29.1334 24H27.5334C27.0915 24 26.7334 23.6418 26.7334 23.2C26.7334 22.7582 27.0915 22.4 27.5334 22.4H29.1334ZM21.9334 19.2C22.3752 19.2 22.7334 19.5582 22.7334 20C22.7334 20.4418 22.3752 20.8 21.9334 20.8H20.3334C19.8915 20.8 19.5334 20.4418 19.5334 20C19.5334 19.5582 19.8915 19.2 20.3334 19.2H21.9334Z" fill="#1B1B1B"/>
</svg>
