<svg width="49" height="48" viewBox="0 0 49 48" fill="none" xmlns="http://www.w3.org/2000/svg">
<path fill-rule="evenodd" clip-rule="evenodd" d="M24.6666 46.5C37.093 46.5 47.1666 36.4264 47.1666 24C47.1666 11.5736 37.093 1.5 24.6666 1.5C12.2402 1.5 2.16663 11.5736 2.16663 24C2.16663 36.4264 12.2402 46.5 24.6666 46.5ZM24.6666 48C37.9215 48 48.6666 37.2548 48.6666 24C48.6666 10.7452 37.9215 0 24.6666 0C11.4118 0 0.666626 10.7452 0.666626 24C0.666626 37.2548 11.4118 48 24.6666 48Z" fill="#1B1B1B"/>
<path fill-rule="evenodd" clip-rule="evenodd" d="M19.0666 32C17.7411 32 16.6666 30.9255 16.6666 29.6V24.8C16.6666 23.4745 17.7411 22.4 19.0666 22.4H20.1714L22.7089 17.3267C23.0915 16.5614 23.8501 16.0615 24.6959 16.0053L24.8555 16H25.0666C26.127 16 26.9947 16.8252 27.0624 17.8685L27.0666 18V22.4H30.2652C30.4233 22.4 30.5809 22.4156 30.7359 22.4466C31.9892 22.6973 32.8178 23.8819 32.6423 25.1316L32.6186 25.2707L31.6586 30.0707C31.4436 31.1458 30.53 31.9322 29.4474 31.9958L29.3052 32H19.0666ZM19.8666 24H19.0666C18.6248 24 18.2666 24.3582 18.2666 24.8V29.6C18.2666 30.0418 18.6248 30.4 19.0666 30.4H19.8666V24ZM25.0666 17.6H24.8555C24.5861 17.6 24.3373 17.7353 24.1902 17.9557L24.1399 18.0422L21.5511 23.2199C21.5094 23.3033 21.4827 23.393 21.472 23.485L21.4666 23.5777V30.4H29.3052C29.6548 30.4 29.9598 30.1738 30.0658 29.8481L30.0897 29.7569L31.0497 24.9569C31.1363 24.5236 30.8554 24.1022 30.4221 24.0155L30.3441 24.0039L30.2652 24H27.0666C26.2231 24 25.5321 23.3473 25.471 22.5194L25.4666 22.4V18C25.4666 17.8036 25.3251 17.6403 25.1385 17.6064L25.0666 17.6Z" fill="#1B1B1B"/>
</svg>
