<svg width="20" height="20" viewBox="0 0 20 20" fill="none" xmlns="http://www.w3.org/2000/svg">
<path d="M13.6367 1.66675H6.52167C3.84306 1.66675 1.66669 3.83342 1.66669 6.50008V13.4167C1.66669 16.1667 3.84306 18.3334 6.52167 18.3334H13.4693C16.1479 18.3334 18.3243 16.1667 18.3243 13.5001V6.50008C18.4917 3.83342 16.3153 1.66675 13.6367 1.66675ZM10.0373 14.3334C7.60986 14.3334 5.6846 12.4167 5.6846 10.0001C5.6846 7.58342 7.60986 5.66675 10.0373 5.66675C12.4648 5.66675 14.3901 7.58342 14.3901 10.0001C14.3901 12.4167 12.4648 14.3334 10.0373 14.3334ZM15.0597 6.08342C14.4738 6.08342 13.9716 5.58341 13.9716 5.00008C13.9716 4.41675 14.3901 3.91675 15.0597 3.91675C15.6457 3.91675 16.1479 4.41675 16.1479 5.00008C16.1479 5.58341 15.6457 6.08342 15.0597 6.08342Z" fill="white"/>
<path d="M12.5 10.0001C12.5 11.3808 11.3807 12.5001 10 12.5001C8.61931 12.5001 7.50002 11.3808 7.50002 10.0001C7.50002 8.61937 8.61931 7.50008 10 7.50008C11.3807 7.50008 12.5 8.61937 12.5 10.0001Z" fill="white"/>
</svg>
