<svg width="20" height="20" viewBox="0 0 20 20" fill="none" xmlns="http://www.w3.org/2000/svg">
<path fill-rule="evenodd" clip-rule="evenodd" d="M10 1.66666C14.1421 1.66666 17.5 4.98809 17.5 9.08529C17.5 11.7965 15.2314 14.6632 10.7902 17.7859L10 18.3333L9.52316 18.0042C4.87535 14.7966 2.5 11.8596 2.5 9.08529C2.5 4.98809 5.85786 1.66666 10 1.66666ZM10 3.31524C6.77834 3.31524 4.16667 5.89858 4.16667 9.08529C4.16667 11.0874 6.0806 13.5304 10 16.3182C13.9194 13.5304 15.8333 11.0874 15.8333 9.08529C15.8333 5.89858 13.2217 3.31524 10 3.31524ZM10 4.99999C11.8409 4.99999 13.3333 6.49237 13.3333 8.33332C13.3333 10.1743 11.8409 11.6667 10 11.6667C8.15905 11.6667 6.66667 10.1743 6.66667 8.33332C6.66667 6.49237 8.15905 4.99999 10 4.99999ZM10 6.66666C9.07952 6.66666 8.33333 7.41285 8.33333 8.33332C8.33333 9.2538 9.07952 9.99999 10 9.99999C10.9205 9.99999 11.6667 9.2538 11.6667 8.33332C11.6667 7.41285 10.9205 6.66666 10 6.66666Z" fill="#1B1B1B"/>
</svg>
