<svg width="20" height="20" viewBox="0 0 20 20" fill="none" xmlns="http://www.w3.org/2000/svg">
<path fill-rule="evenodd" clip-rule="evenodd" d="M17.5 14.1667C17.9603 14.1667 18.3334 14.5398 18.3334 15C18.3334 15.4602 17.9603 15.8333 17.5 15.8333H2.50002C2.03978 15.8333 1.66669 15.4602 1.66669 15C1.66669 14.5398 2.03978 14.1667 2.50002 14.1667H17.5ZM17.5 9.16667C17.9603 9.16667 18.3334 9.53976 18.3334 10C18.3334 10.4602 17.9603 10.8333 17.5 10.8333H2.50002C2.03978 10.8333 1.66669 10.4602 1.66669 10C1.66669 9.53976 2.03978 9.16667 2.50002 9.16667H17.5ZM17.5 4.16667C17.9603 4.16667 18.3334 4.53976 18.3334 5C18.3334 5.46024 17.9603 5.83333 17.5 5.83333H2.50002C2.03978 5.83333 1.66669 5.46024 1.66669 5C1.66669 4.53976 2.03978 4.16667 2.50002 4.16667H17.5Z" fill="white"/>
</svg>
