<svg width="20" height="20" viewBox="0 0 20 20" fill="none" xmlns="http://www.w3.org/2000/svg">
<path fill-rule="evenodd" clip-rule="evenodd" d="M7.96209 8.19337C8.19392 8.03881 8.33317 7.77862 8.33317 7.49999V4.16666C8.33317 2.78594 7.21388 1.66666 5.83317 1.66666H2.49984C2.0396 1.66666 1.6665 2.03975 1.6665 2.49999C1.6665 10.7843 9.21557 18.3333 17.4998 18.3333C17.9601 18.3333 18.3332 17.9602 18.3332 17.5V14.1667C18.3332 12.7859 17.2139 11.6667 15.8332 11.6667H12.4998C12.2212 11.6667 11.961 11.8059 11.8065 12.0377L10.2187 14.4194C8.48933 13.3012 6.97421 11.8243 5.80879 10.1241L5.58041 9.78115L7.96209 8.19337ZM12.9458 13.3333H15.8332C16.2934 13.3333 16.6665 13.7064 16.6665 14.1667V16.6378C15.0521 16.5261 13.4766 16.0943 12.0071 15.4096L11.6699 15.2472L12.9458 13.3333ZM3.36206 3.33332H5.83317C6.29341 3.33332 6.6665 3.70642 6.6665 4.16666V7.054L4.75265 8.3299C3.97386 6.76536 3.48237 5.07187 3.36206 3.33332Z" fill="#1B1B1B"/>
</svg>
