<svg width="27" height="20" viewBox="0 0 27 20" fill="none" xmlns="http://www.w3.org/2000/svg">
<path d="M17.9384 11.2601C16.9375 10.7954 16.1689 10.0983 15.6327 9.1689C15.0608 8.27525 14.7748 7.22074 14.7748 6.00536C14.7748 4.21805 15.3468 2.77033 16.4906 1.6622C17.6345 0.554064 19.1001 0 20.8874 0C22.6747 0 24.1403 0.554064 25.2842 1.6622C26.4281 2.77033 27 4.21805 27 6.00536C27 6.82753 26.8928 7.64969 26.6783 8.47185C26.4638 9.29401 25.9813 10.5094 25.2306 12.118L21.7989 20H15.4183L17.9384 11.2601ZM3.8901 11.2601C2.88921 10.7954 2.12066 10.0983 1.58447 9.1689C1.01253 8.27525 0.726562 7.22074 0.726562 6.00536C0.726563 4.21805 1.2985 2.77033 2.44238 1.6622C3.58626 0.554064 5.05185 0 6.83916 0C8.62647 0 10.0921 0.554064 11.2359 1.6622C12.3798 2.77033 12.9518 4.21805 12.9518 6.00536C12.9518 6.82753 12.8445 7.64969 12.63 8.47185C12.4156 9.29401 11.933 10.5094 11.1823 12.118L7.75069 20H1.37L3.8901 11.2601Z" fill="#005BFF"/>
</svg>
