<svg width="20" height="20" viewBox="0 0 20 20" fill="none" xmlns="http://www.w3.org/2000/svg">
<path fill-rule="evenodd" clip-rule="evenodd" d="M12.5 1.66666C13.8807 1.66666 15 2.78594 15 4.16666V15.8333C15 17.214 13.8807 18.3333 12.5 18.3333H7.5C6.11929 18.3333 5 17.214 5 15.8333V4.16666C5 2.78594 6.11929 1.66666 7.5 1.66666H12.5ZM12.5 3.33332H7.5C7.03976 3.33332 6.66667 3.70641 6.66667 4.16665V15.8333C6.66667 16.2936 7.03976 16.6667 7.5 16.6667H12.5C12.9602 16.6667 13.3333 16.2936 13.3333 15.8333V4.16665C13.3333 3.70641 12.9602 3.33332 12.5 3.33332ZM10 15.8333C10.4602 15.8333 10.8333 15.4602 10.8333 15C10.8333 14.5398 10.4602 14.1667 10 14.1667C9.53976 14.1667 9.16667 14.5398 9.16667 15C9.16667 15.4602 9.53976 15.8333 10 15.8333Z" fill="#1B1B1B"/>
<path d="M8.33333 3.33333C8.33333 2.87309 8.70643 2.5 9.16667 2.5H10.8333C11.2936 2.5 11.6667 2.87309 11.6667 3.33333C11.6667 3.79357 11.2936 4.16666 10.8333 4.16666H9.16667C8.70643 4.16666 8.33333 3.79357 8.33333 3.33333Z" fill="#1B1B1B"/>
</svg>
