<svg width="48" height="48" viewBox="0 0 48 48" fill="none" xmlns="http://www.w3.org/2000/svg">
<path fill-rule="evenodd" clip-rule="evenodd" d="M24 46.5C36.4264 46.5 46.5 36.4264 46.5 24C46.5 11.5736 36.4264 1.5 24 1.5C11.5736 1.5 1.5 11.5736 1.5 24C1.5 36.4264 11.5736 46.5 24 46.5ZM24 48C37.2548 48 48 37.2548 48 24C48 10.7452 37.2548 0 24 0C10.7452 0 0 10.7452 0 24C0 37.2548 10.7452 48 24 48Z" fill="#1B1B1B"/>
<path fill-rule="evenodd" clip-rule="evenodd" d="M21.0801 28.7988L17.2996 31.8232C16.7759 32.2422 16 31.8693 16 31.1986V18.3998C16 17.0744 17.0744 16 18.3998 16H29.5987C30.9241 16 31.9985 17.0744 31.9985 18.3998V26.399C31.9985 27.7244 30.9241 28.7988 29.5987 28.7988H21.0801ZM17.5998 29.5342L20.2998 27.3742C20.4417 27.2608 20.6179 27.1989 20.7995 27.1989H29.5987C30.0405 27.1989 30.3986 26.8408 30.3986 26.399V18.3998C30.3986 17.958 30.0405 17.5998 29.5987 17.5998H18.3998C17.958 17.5998 17.5998 17.958 17.5998 18.3998V29.5342Z" fill="#1B1B1B"/>
</svg>
