<svg width="49" height="48" viewBox="0 0 49 48" fill="none" xmlns="http://www.w3.org/2000/svg">
<path fill-rule="evenodd" clip-rule="evenodd" d="M24.6666 46.5C37.093 46.5 47.1666 36.4264 47.1666 24C47.1666 11.5736 37.093 1.5 24.6666 1.5C12.2402 1.5 2.16663 11.5736 2.16663 24C2.16663 36.4264 12.2402 46.5 24.6666 46.5ZM24.6666 48C37.9215 48 48.6666 37.2548 48.6666 24C48.6666 10.7452 37.9215 0 24.6666 0C11.4118 0 0.666626 10.7452 0.666626 24C0.666626 37.2548 11.4118 48 24.6666 48Z" fill="#1B1B1B"/>
<path fill-rule="evenodd" clip-rule="evenodd" d="M23.8666 16H25.4666C26.7448 16 27.7896 16.9991 27.8626 18.259L27.8666 18.4V19.2H30.2666C31.5921 19.2 32.6666 20.2745 32.6666 21.6V29.6C32.6666 30.9255 31.5921 32 30.2666 32H19.0666C17.7411 32 16.6666 30.9255 16.6666 29.6V21.6C16.6666 20.2745 17.7411 19.2 19.0666 19.2H21.4666V18.4C21.4666 17.1219 22.4658 16.0771 23.7256 16.0041L23.8666 16ZM31.0666 27.2H18.2666V29.6C18.2666 30.0418 18.6248 30.4 19.0666 30.4H30.2666C30.7085 30.4 31.0666 30.0418 31.0666 29.6V27.2ZM30.2666 20.8H19.0666C18.6248 20.8 18.2666 21.1582 18.2666 21.6V25.6H31.0666V21.6C31.0666 21.1582 30.7085 20.8 30.2666 20.8ZM25.4666 17.6H23.8666C23.4564 17.6 23.1182 17.9088 23.072 18.3067L23.0666 18.4V19.2H26.2666V18.4C26.2666 17.9897 25.9578 17.6516 25.5599 17.6054L25.4666 17.6Z" fill="#1B1B1B"/>
</svg>
