<svg width="18" height="18" viewBox="0 0 18 18" fill="none" xmlns="http://www.w3.org/2000/svg">
<path fill-rule="evenodd" clip-rule="evenodd" d="M8.99999 0.666626C13.6024 0.666626 17.3333 4.39759 17.3333 8.99996C17.3333 13.6023 13.6024 17.3333 8.99999 17.3333C4.39762 17.3333 0.666656 13.6023 0.666656 8.99996C0.666656 4.39759 4.39762 0.666626 8.99999 0.666626ZM8.99999 2.33331C5.31809 2.33331 2.33333 5.31807 2.33333 8.99997C2.33333 12.6819 5.31809 15.6666 8.99999 15.6666C12.6819 15.6666 15.6667 12.6819 15.6667 8.99997C15.6667 5.31807 12.6819 2.33331 8.99999 2.33331Z" fill="#1B1B1B"/>
<path fill-rule="evenodd" clip-rule="evenodd" d="M12.6398 6.74405C12.9653 7.06949 12.9653 7.59712 12.6398 7.92256L8.27246 12.2899C8.11616 12.4462 7.90416 12.534 7.68312 12.534C7.46208 12.534 7.2501 12.4462 7.09383 12.2898L5.07729 10.2725C4.75191 9.94701 4.75201 9.41937 5.07751 9.094C5.40301 8.76862 5.93065 8.76872 6.25602 9.09422L7.68331 10.5221L11.4613 6.74405C11.7868 6.41861 12.3144 6.41861 12.6398 6.74405Z" fill="#1B1B1B"/>
</svg>
