<svg width="20" height="20" viewBox="0 0 20 20" fill="none" xmlns="http://www.w3.org/2000/svg">
<path fill-rule="evenodd" clip-rule="evenodd" d="M15.8332 3.33334C17.2139 3.33334 18.3332 4.45263 18.3332 5.83334V14.1667C18.3332 15.5474 17.2139 16.6667 15.8332 16.6667H4.1665C2.78579 16.6667 1.6665 15.5474 1.6665 14.1667V5.83334C1.6665 4.45263 2.78579 3.33334 4.1665 3.33334H15.8332ZM16.6665 6.10666L10.5486 11.4605C10.2606 11.7125 9.84238 11.7335 9.53268 11.5235L9.45108 11.4605L3.33317 6.10749V14.1667C3.33317 14.6269 3.70627 15 4.1665 15H15.8332C16.2934 15 16.6665 14.6269 16.6665 14.1667V6.10666ZM15.3998 5H4.59816L9.99983 9.72603L15.3998 5Z" fill="#1B1B1B"/>
</svg>
