<svg width="48" height="48" viewBox="0 0 48 48" fill="none" xmlns="http://www.w3.org/2000/svg">
<path fill-rule="evenodd" clip-rule="evenodd" d="M24 46.5C36.4264 46.5 46.5 36.4264 46.5 24C46.5 11.5736 36.4264 1.5 24 1.5C11.5736 1.5 1.5 11.5736 1.5 24C1.5 36.4264 11.5736 46.5 24 46.5ZM24 48C37.2548 48 48 37.2548 48 24C48 10.7452 37.2548 0 24 0C10.7452 0 0 10.7452 0 24C0 37.2548 10.7452 48 24 48Z" fill="#1B1B1B"/>
<path fill-rule="evenodd" clip-rule="evenodd" d="M23.6757 16.0689C23.8529 15.9902 24.0517 15.9789 24.2351 16.0352L24.3254 16.0689L31.5258 19.2681C31.8154 19.3968 31.999 19.6825 32.001 19.9936L31.9961 20.0876L31.5382 24.2092C31.3041 26.3159 30.1544 28.2081 28.4028 29.3871L28.198 29.52L24.4245 31.8784C24.1939 32.0225 23.9082 32.0385 23.6654 31.9264L23.5765 31.8784L19.803 29.52C18.0055 28.3965 16.798 26.5408 16.4939 24.4513L16.4629 24.2092L16.0049 20.0876C15.9699 19.7727 16.124 19.4701 16.3916 19.3113L16.4752 19.2681L23.6757 16.0689ZM24.0005 17.6755L17.6599 20.4927L18.0532 24.0325C18.234 25.6601 19.1175 27.1231 20.4646 28.0413L20.6511 28.1631L24.0005 30.2565L27.3499 28.1631C28.7386 27.2952 29.6746 25.8652 29.9189 24.2534L29.9478 24.0325L30.3412 20.4927L24.0005 17.6755ZM25.7715 21.1051C26.0445 20.7577 26.5475 20.6973 26.8949 20.9703C27.2156 21.2223 27.2917 21.6702 27.0868 22.0109L27.0297 22.0937L23.8295 26.0939C23.5544 26.4441 23.0525 26.4979 22.7106 26.2323L22.6347 26.1653L21.0346 24.5652C20.7222 24.2528 20.7222 23.7462 21.0346 23.4338C21.3231 23.1454 21.7769 23.1232 22.0907 23.3673L22.1661 23.4338L23.1285 24.3962L25.7715 21.1051Z" fill="#1B1B1B"/>
</svg>
