<svg width="49" height="48" viewBox="0 0 49 48" fill="none" xmlns="http://www.w3.org/2000/svg">
<path fill-rule="evenodd" clip-rule="evenodd" d="M24.3334 46.5C36.7598 46.5 46.8334 36.4264 46.8334 24C46.8334 11.5736 36.7598 1.5 24.3334 1.5C11.907 1.5 1.83337 11.5736 1.83337 24C1.83337 36.4264 11.907 46.5 24.3334 46.5ZM24.3334 48C37.5882 48 48.3334 37.2548 48.3334 24C48.3334 10.7452 37.5882 0 24.3334 0C11.0785 0 0.333374 10.7452 0.333374 24C0.333374 37.2548 11.0785 48 24.3334 48Z" fill="#1B1B1B"/>
<path fill-rule="evenodd" clip-rule="evenodd" d="M18.7334 16H28.3334C29.6115 16 30.6563 16.9991 30.7293 18.259L30.7334 18.4L30.7341 20.9368C31.6659 21.2665 32.3334 22.1553 32.3334 23.2V24.8C32.3334 25.8447 31.6659 26.7335 30.7341 27.0632L30.7334 29.6C30.7334 30.8781 29.7342 31.9229 28.4744 31.9959L28.3334 32H18.7334C17.4552 32 16.4104 31.0009 16.3374 29.741L16.3334 29.6V18.4C16.3334 17.1219 17.3325 16.0771 18.5924 16.0041L18.7334 16ZM28.3334 17.6H18.7334C18.3231 17.6 17.985 17.9088 17.9388 18.3067L17.9334 18.4V29.6C17.9334 30.0103 18.2422 30.3484 18.6401 30.3946L18.7334 30.4H28.3334C28.7436 30.4 29.0818 30.0912 29.128 29.6933L29.1334 29.6V27.2H28.3334C27.0079 27.2 25.9334 26.1255 25.9334 24.8V23.2C25.9334 21.8745 27.0079 20.8 28.3334 20.8H29.1334V18.4C29.1334 17.9897 28.8245 17.6516 28.4267 17.6054L28.3334 17.6ZM29.9334 22.4H28.3334C27.8915 22.4 27.5334 22.7582 27.5334 23.2V24.8C27.5334 25.2418 27.8915 25.6 28.3334 25.6H29.9334C30.3752 25.6 30.7334 25.2418 30.7334 24.8V23.2C30.7334 22.7582 30.3752 22.4 29.9334 22.4Z" fill="#1B1B1B"/>
</svg>
