<svg width="27" height="20" viewBox="0 0 27 20" fill="none" xmlns="http://www.w3.org/2000/svg">
<path d="M9.06166 8.73995C10.0626 9.20465 10.8311 9.9017 11.3673 10.8311C11.9392 11.7248 12.2252 12.7793 12.2252 13.9946C12.2252 15.7819 11.6533 17.2297 10.5094 18.3378C9.36551 19.4459 7.89991 20 6.1126 20C4.32529 20 2.8597 19.4459 1.71582 18.3378C0.571939 17.2297 0 15.7819 0 13.9946C0 13.1725 0.107239 12.3503 0.321716 11.5282C0.536193 10.706 1.01877 9.49062 1.76944 7.88204L5.20107 0H11.5818L9.06166 8.73995ZM23.1099 8.73995C24.1108 9.20465 24.8794 9.9017 25.4156 10.8311C25.9875 11.7248 26.2735 12.7793 26.2735 13.9946C26.2735 15.7819 25.7015 17.2297 24.5576 18.3378C23.4138 19.4459 21.9482 20 20.1609 20C18.3735 20 16.908 19.4459 15.7641 18.3378C14.6202 17.2297 14.0483 15.7819 14.0483 13.9946C14.0483 13.1725 14.1555 12.3503 14.37 11.5282C14.5845 10.706 15.067 9.49062 15.8177 7.88204L19.2493 0H25.63L23.1099 8.73995Z" fill="#005BFF"/>
</svg>
