<svg width="48" height="48" viewBox="0 0 48 48" fill="none" xmlns="http://www.w3.org/2000/svg">
<path d="M12.4796 41.6804L13.253 42.0696C16.4758 44.0155 20.0851 44.9236 23.6945 44.9236C35.0383 44.9236 44.3195 35.5831 44.3195 24.1669C44.3195 18.7183 42.128 13.3994 38.2609 9.50742C34.3937 5.61547 29.2373 3.41016 23.6945 3.41016C12.3508 3.41016 3.06936 12.7507 3.19835 24.2967C3.19835 28.1885 4.3585 31.9508 6.29203 35.1939L6.80762 35.9724L4.74528 43.6264L12.4796 41.6804Z" fill="#25D366"/>
<path d="M40.4766 7.00539C36.0938 2.46494 30.0352 0 23.8477 0C10.6994 0 0.128988 10.7675 0.257791 23.8702C0.257791 28.0216 1.41795 32.0433 3.35166 35.6757L0 48L12.5039 44.7567C15.9844 46.7028 19.8514 47.6109 23.7188 47.6109C36.7383 47.6109 47.3087 36.8432 47.3087 23.7407C47.3087 17.3839 44.8592 11.4162 40.4766 7.00539ZM23.8477 43.5894C20.3672 43.5894 16.8867 42.6814 13.9218 40.8652L13.1485 40.4759L5.67197 42.4218L7.60549 35.0273L7.08991 34.2488C1.41795 25.0381 4.12503 12.8432 13.4063 7.13502C22.6875 1.427 34.6758 4.15139 40.3478 13.4919C46.0196 22.8324 43.3125 34.8973 34.0314 40.6055C31.0664 42.5514 27.4571 43.5894 23.8477 43.5894ZM35.1914 29.1895L33.7735 28.5408C33.7735 28.5408 31.7111 27.6327 30.422 26.984C30.293 26.984 30.1642 26.8542 30.0352 26.8542C29.6484 26.8542 29.3906 26.984 29.1328 27.1138C29.1328 27.1138 29.004 27.2434 27.1993 29.3191C27.0703 29.5786 26.8125 29.7084 26.5547 29.7084H26.4258C26.2969 29.7084 26.0392 29.5786 25.9102 29.4489L25.2656 29.1895C23.8477 28.5408 22.5587 27.7623 21.5273 26.7246C21.2696 26.4651 20.8828 26.2057 20.625 25.9463C19.7226 25.0381 18.8203 24.0002 18.1759 22.8326L18.0469 22.5732C17.9181 22.4434 17.9181 22.3137 17.7891 22.0543C17.7891 21.7949 17.7891 21.5354 17.9181 21.4056C17.9181 21.4056 18.4337 20.7569 18.8203 20.3679C19.0782 20.1082 19.207 19.7192 19.4648 19.4597C19.7226 19.0705 19.8516 18.5516 19.7226 18.1624C19.5938 17.5137 18.0469 14.011 17.6603 13.2327C17.4023 12.8434 17.1447 12.7138 16.7579 12.584H15.34C15.082 12.584 14.8244 12.7138 14.5664 12.7138L14.4374 12.8434C14.1796 12.9732 13.9218 13.2327 13.6641 13.3623C13.4063 13.6219 13.2773 13.8812 13.0195 14.1408C12.1171 15.3084 11.6015 16.7354 11.6015 18.1624C11.6015 19.2001 11.8593 20.2381 12.2461 21.1462L12.3751 21.5354C13.5353 24.0002 15.082 26.2057 17.1447 28.1516L17.6603 28.6704C18.0469 29.0597 18.4337 29.3191 18.6915 29.7082C21.3985 32.0435 24.4922 33.73 27.9727 34.6381C28.3595 34.7677 28.875 34.7677 29.2618 34.8975H30.5508C31.1954 34.8975 31.9687 34.6381 32.4845 34.3787C32.8711 34.1192 33.1289 34.1192 33.3867 33.8598L33.6447 33.6002C33.9024 33.3407 34.1602 33.2111 34.418 32.9516C34.6758 32.6922 34.9336 32.4328 35.0626 32.1731C35.3204 31.6543 35.4492 31.0056 35.5782 30.3571V29.4489C35.5782 29.4489 35.4492 29.3191 35.1914 29.1895Z" fill="white"/>
</svg>
